<?xml version="1.0" encoding="UTF-8" standalone="no"?>
<!-- Generator: Gravit.io -->

<svg
   style="isolation:isolate"
   viewBox="0 0 48 48"
   width="48pt"
   height="48pt"
   version="1.1"
   id="svg9"
   sodipodi:docname="octopi.svg"
   inkscape:version="1.2.2 (b0a8486541, 2022-12-01)"
   xmlns:inkscape="http://www.inkscape.org/namespaces/inkscape"
   xmlns:sodipodi="http://sodipodi.sourceforge.net/DTD/sodipodi-0.dtd"
   xmlns="http://www.w3.org/2000/svg"
   xmlns:svg="http://www.w3.org/2000/svg">
  <defs
     id="defs13" />
  <sodipodi:namedview
     id="namedview11"
     pagecolor="#ffffff"
     bordercolor="#666666"
     borderopacity="1.0"
     inkscape:showpageshadow="2"
     inkscape:pageopacity="0.0"
     inkscape:pagecheckerboard="0"
     inkscape:deskcolor="#d1d1d1"
     inkscape:document-units="pt"
     showgrid="false"
     inkscape:zoom="7.375"
     inkscape:cx="32.542373"
     inkscape:cy="14.033898"
     inkscape:window-width="1440"
     inkscape:window-height="864"
     inkscape:window-x="0"
     inkscape:window-y="0"
     inkscape:window-maximized="1"
     inkscape:current-layer="svg9" />
  <linearGradient
     id="_lgradient_9"
     x1="0"
     y1="0.5"
     x2="0.9877902644462152"
     y2="0.3442104192659979"
     gradientTransform="matrix(42.3,0,0,44.833,2.85,1.584)"
     gradientUnits="userSpaceOnUse">
    <stop
       offset="100%"
       stop-opacity="1"
       style="stop-color:rgb(34,216,143)"
       id="stop2" />
    <stop
       offset="100%"
       stop-opacity="1"
       style="stop-color:rgb(33,214,145)"
       id="stop4" />
  </linearGradient>
  <path
     d="m 7.135,30.964 v 0 c 0.025723,2.869327 -3.6700721,2.343787 -3.985,0.37 v 0 C 2.95,29.182 2.85,28.165 2.85,26.002 2.86,24.28 2.96,22.558 3.17,20.846 3.411,18.954 3.801,17.092 4.352,15.28 4.802,13.788 5.413,12.356 6.174,11.005 6.584,10.274 7.045,9.583 7.546,8.912 8.026,8.281 8.547,7.671 9.107,7.11 9.658,6.559 10.249,6.039 10.879,5.568 c 0.631,-0.48 1.292,-0.911 1.993,-1.301 1.512,-0.841 3.124,-1.472 4.806,-1.873 2.062,-0.5 4.164,-0.77 6.287,-0.81 h 0.03 0.811 0.02 c 1.342,0.01 2.663,0.15 3.975,0.4 1.241,0.25 2.463,0.621 3.624,1.131 2.293,1.001 4.325,2.513 5.957,4.406 0.741,0.861 1.402,1.782 1.982,2.753 0.671,1.111 1.242,2.282 1.732,3.484 0.521,1.261 0.952,2.553 1.292,3.864 0.42,1.602 0.761,3.214 1.011,4.846 0.1,0.661 0.19,1.322 0.27,1.973 0.081,0.72 0.151,1.431 0.211,2.152 0.19,2.183 0.27,4.375 0.27,6.558 -0.01,3.033 -0.12,6.057 -0.12,6.057 -0.127,1.663 -0.76,3.538 -1.412,4.185 0,0 -1.381,0.941 -2.903,1.622 -1.182,0.51 -2.463,0.781 -3.755,0.791 -1.291,-0.01 -2.563,-0.281 -3.744,-0.791 -0.711,-0.321 -1.392,-0.691 -2.033,-1.121 -0.71,0.57 -1.471,1.081 -2.272,1.511 -1.222,0.641 -2.563,0.991 -3.945,1.011 -1.361,-0.01 -2.703,-0.37 -3.884,-1.041 -0.741,-0.42 -1.432,-0.921 -2.063,-1.481 -0.561,0.32 -1.151,0.6 -1.752,0.83 -1.151,0.421 -2.363,0.641 -3.584,0.641 -1.252,-0.01 -2.483,-0.22 -3.665,-0.62 C 8.747,44.304 7.536,43.703 6.414,42.972 v 0 C 5.486,42.37 5.221,41.13 5.824,40.204 v 0 c 0.602,-0.925 1.844,-1.188 2.773,-0.586 v 0 c 0.851,0.551 1.762,1.002 2.723,1.332 0.771,0.26 1.572,0.401 2.373,0.411 0.741,0 1.472,-0.131 2.162,-0.391 1.512,-0.571 2.814,-1.572 2.814,-1.572 0.519,-0.724 1.268,-0.594 1.672,0.291 0,0 1.211,1.331 2.723,2.212 0.581,0.321 1.231,0.501 1.892,0.511 0.721,-0.01 1.422,-0.2 2.063,-0.541 1.601,-0.861 2.963,-2.112 2.963,-2.112 0.542,-0.84 1.43,-0.917 1.982,-0.171 0,0 1.322,1.072 2.864,1.752 0.671,0.301 1.401,0.451 2.132,0.461 0.741,-0.01 1.472,-0.16 2.143,-0.461 0.641,-0.28 1.251,-0.63 1.251,-0.63 0.31,-0.232 0.625,-1.436 0.704,-2.687 0.007,-0.117 0.087,-2.489 0.087,-4.872 0,-2.083 -0.08,-4.155 -0.25,-6.228 -0.06,-0.67 -0.13,-1.341 -0.21,-2.012 -0.07,-0.611 -0.15,-1.221 -0.241,-1.832 -0.23,-1.492 -0.54,-2.974 -0.931,-4.435 -0.3,-1.152 -0.67,-2.273 -1.121,-3.374 C 37.982,14.248 37.491,13.267 36.92,12.326 36.46,11.545 35.939,10.814 35.348,10.134 34.107,8.692 32.565,7.551 30.823,6.78 29.922,6.399 28.991,6.109 28.03,5.919 26.969,5.708 25.887,5.598 24.806,5.588 h -0.781 c -1.822,0.04 -3.634,0.271 -5.416,0.701 -1.322,0.31 -2.593,0.811 -3.785,1.472 -0.53,0.3 -1.051,0.641 -1.532,1.001 -0.48,0.36 -0.931,0.751 -1.351,1.181 -0.431,0.431 -0.831,0.891 -1.192,1.382 -0.4,0.521 -0.761,1.071 -1.081,1.642 -0.621,1.101 -1.111,2.263 -1.482,3.474 -0.48,1.592 -0.831,3.234 -1.041,4.896 -0.19,1.552 -0.28,3.104 -0.29,4.665 0,2.043 0.1,2.94 0.28,4.962 z m 7.322,-11.432 c -0.14,-2.579 1.478,-4.767 3.611,-4.882 2.133,-0.116 3.979,1.883 4.119,4.462 0.14,2.579 -1.478,4.767 -3.611,4.883 -2.133,0.116 -3.978,-1.884 -4.119,-4.463 z m 11.356,0 c -0.14,-2.579 1.478,-4.767 3.611,-4.882 2.133,-0.116 3.978,1.883 4.119,4.462 0.14,2.579 -1.478,4.767 -3.611,4.883 -2.133,0.116 -3.979,-1.884 -4.119,-4.463 z"
     fill-rule="evenodd"
     fill="url(#_lgradient_9)"
     id="path7"
     style="fill:#d45500"
     sodipodi:nodetypes="sccsccccccccccccccccccccccccccccccccccccsssssscccccccccccccccsccccccccccccccccccccsccsscsccss" />
</svg>
